<svg id="visual" viewBox="0 0 900 600" width="900" height="600" xmlns="http://www.w3.org/2000/svg" xmlns:xlink="http://www.w3.org/1999/xlink" version="1.1"><g transform="translate(456.90974568784867 280.7229772048331)"><path d="M101.6 -138C144.4 -108.7 200.6 -96.1 217.1 -65.7C233.6 -35.3 210.5 12.8 196.2 65.9C181.9 119.1 176.5 177.2 145.3 216.4C114 255.6 57 275.8 8.4 264.2C-40.2 252.6 -80.3 209.2 -127.9 175.3C-175.4 141.5 -230.4 117.1 -236.1 81C-241.9 45 -198.5 -2.7 -174.5 -50.6C-150.6 -98.6 -146.1 -146.8 -120.3 -181.5C-94.4 -216.3 -47.2 -237.7 -8.9 -225.4C29.4 -213.1 58.8 -167.2 101.6 -138" fill="#ccc8c3"></path></g></svg>